Coordinates
version=1
nRows=6
nColumns=36
inDegrees=yes

Units are S.I. units (second, meters, Newtons, ...)
If the header above contains a line with 'inDegrees', this indicates whether rotational values are in degrees (yes) or radians (no).

endheader
time	pelvis_tilt	pelvis_list	pelvis_rotation	pelvis_tx	pelvis_ty	pelvis_tz	hip_flexion_r	hip_adduction_r	hip_rotation_r	knee_angle_r	knee_angle_r_beta	ankle_angle_r	subtalar_angle_r	mtp_angle_r	hip_flexion_l	hip_adduction_l	hip_rotation_l	knee_angle_l	knee_angle_l_beta	ankle_angle_l	subtalar_angle_l	mtp_angle_l	lumbar_extension	lumbar_bending	lumbar_rotation	arm_flex_r	arm_add_r	arm_rot_r	elbow_flex_r	pro_sup_r	arm_flex_l	arm_add_l	arm_rot_l	elbow_flex_l	pro_sup_l
      0.00000000	     20.61821242	     -1.53074793	      1.83178905	     -0.52105896	      0.57940598	     -0.60445325	     67.40295971	     -4.80354731	      3.16168356	    100.70286156	      1.75759650	     14.12097320	     -5.91232653	     -4.14665275	     67.35864043	     -1.45878325	      5.51934250	    103.32917385	      1.80343430	     13.79460905	    -12.59780315	     -4.14665275	    -42.83113911	      1.90042320	     -1.86698557	      3.27339591	    -12.01030923	      7.53193771	    137.21084410	     98.53097782	      1.37624109	    -10.87196495	      5.62898071	    135.75383286	     89.91241842
      0.01000000	     20.57617399	     -1.51146521	      1.82548571	     -0.52100799	      0.57937507	     -0.60444242	     67.46126795	     -4.78267008	      3.19751686	    100.71698141	      1.75784294	     13.99128134	     -5.96747914	     -4.25322978	     67.42504217	     -1.48724304	      5.46051336	    103.34340000	      1.80368259	     13.66061318	    -12.64412189	     -4.25322978	    -42.87120893	      1.89185767	     -1.86978187	      3.27126366	    -11.96373884	      7.43706527	    137.29653245	     98.08404653	      1.39231385	    -10.85401386	      5.58050088	    135.83187468	     89.50564869
      0.02000000	     20.54423624	     -1.51026763	      1.81446273	     -0.52094525	      0.57938190	     -0.60441229	     67.49306881	     -4.75290994	      3.21736481	    100.71423885	      1.75779507	     13.94916185	     -6.03368582	     -4.35390921	     67.48692394	     -1.56404761	      5.39681674	    103.35775152	      1.80393307	     13.57171604	    -12.68170409	     -4.35390921	    -42.89724496	      1.87975977	     -1.84918718	      3.27344163	    -11.96765760	      7.42555646	    137.32244755	     97.67233339	      1.40279239	    -10.86385251	      5.59695934	    135.88681523	     89.16520329
      0.03000000	     20.49912856	     -1.51110787	      1.80121971	     -0.52086612	      0.57937820	     -0.60436905	     67.54236092	     -4.73229754	      3.22308606	    100.71638733	      1.75783257	     13.90236186	     -6.07671753	     -4.47802065	     67.55363787	     -1.62501210	      5.35395896	    103.37107548	      1.80416562	     13.52506294	    -12.65473376	     -4.47802065	    -42.90773883	      1.87304999	     -1.82503873	      3.26663363	    -11.95872329	      7.44051724	    137.37308688	     97.12075800	      1.40741985	    -10.85466647	      5.58669629	    135.94890430	     88.74855554
      0.04000000	     20.46954853	     -1.51713417	      1.79288300	     -0.52082168	      0.57936188	     -0.60433948	     67.56640919	     -4.70957165	      3.22367334	    100.71735670	      1.75784949	     13.90559381	     -6.09804922	     -4.53445167	     67.58791405	     -1.63206316	      5.37080737	    103.36936596	      1.80413578	     13.51419673	    -12.65110829	     -4.53445167	    -42.93349820	      1.87194188	     -1.79653765	      3.31723506	    -11.95881532	      7.48535901	    137.39826318	     96.88178451	      1.47574357	    -10.86434484	      5.59478602	    135.96016797	     88.59572887
      0.05000000	     20.43890137	     -1.52241640	      1.78568820	     -0.52078049	      0.57935723	     -0.60430235	     67.59697540	     -4.69392343	      3.20975974	    100.71464861	      1.75780222	     13.91158004	     -6.11304974	     -4.60527368	     67.60466322	     -1.62964152	      5.39200068	    103.36645793	      1.80408503	     13.51227790	    -12.63227262	     -4.60527368	    -42.97755522	      1.87870136	     -1.76998783	      3.34339254	    -11.98176393	      7.51788491	    137.45000249	     96.60727095	      1.51713789	    -10.89781212	      5.60131261	    136.00776443	     88.41066152
